<?xml version="1.0" standalone="no"?>
<!DOCTYPE svg PUBLIC "-//W3C//DTD SVG 20010904//EN"
 "http://www.w3.org/TR/2001/REC-SVG-20010904/DTD/svg10.dtd">
<svg version="1.0" xmlns="http://www.w3.org/2000/svg"
 width="1280.000000pt" height="640.000000pt" viewBox="0 0 1280.000000 640.000000"
 preserveAspectRatio="xMidYMid meet">
<g transform="translate(0.000000,640.000000) scale(0.100000,-0.100000)"
fill="#009688" stroke="none">
<path d="M7310 6294 c-265 -24 -539 -70 -712 -120 -127 -36 -354 -120 -378
-140 -8 -6 -60 -34 -115 -62 -55 -27 -138 -72 -185 -100 -47 -28 -103 -61
-124 -74 -95 -55 -217 -142 -288 -205 -117 -104 -613 -615 -798 -823 -199
-225 -623 -650 -780 -784 -448 -382 -993 -759 -1370 -946 -171 -86 -286 -129
-475 -176 -145 -37 -156 -38 -320 -38 -224 0 -383 28 -625 110 -396 135 -692
337 -936 639 -98 122 -124 143 -158 127 -47 -21 -59 -117 -26 -209 88 -250
454 -645 792 -855 295 -183 676 -278 1120 -278 371 0 749 88 1198 280 537 229
883 417 1628 884 299 187 424 256 466 256 43 0 101 -36 148 -92 25 -29 94
-118 154 -198 136 -182 225 -271 353 -355 155 -102 318 -174 586 -260 286 -92
370 -125 450 -173 182 -109 373 -319 593 -655 108 -164 198 -340 372 -722 197
-434 342 -723 390 -777 33 -38 50 -48 93 -58 34 -7 239 -13 587 -16 294 -3
598 -9 675 -15 317 -22 631 -72 1500 -239 690 -133 693 -133 809 -106 90 21
134 61 122 110 -12 50 -120 88 -671 235 -1022 272 -1247 315 -2085 401 -212
22 -401 44 -421 50 -112 32 -211 169 -318 438 -153 385 -191 708 -131 1107 54
349 139 496 356 607 196 101 329 104 379 9 43 -85 102 -435 112 -667 6 -145 5
-153 -18 -199 -13 -27 -49 -75 -79 -107 -66 -69 -87 -73 -162 -25 -29 19 -62
37 -72 41 -25 9 -83 -11 -90 -31 -7 -16 113 -255 178 -357 39 -62 62 -72 132
-62 73 10 153 55 224 126 107 107 170 242 284 610 78 251 126 357 192 422 26
26 107 80 188 126 189 108 280 167 411 272 61 48 198 154 305 235 265 200 403
317 546 460 97 97 128 135 163 202 24 45 52 90 61 98 41 37 550 117 755 119
99 1 161 -5 262 -23 118 -22 135 -23 168 -10 21 8 47 26 58 41 44 59 -6 110
-379 383 -309 226 -420 303 -494 340 -52 27 -58 27 -150 20 -52 -4 -106 -8
-118 -7 -31 0 -67 36 -164 161 -151 195 -258 280 -499 395 -226 108 -339 139
-347 94 -5 -25 36 -120 93 -218 34 -58 79 -113 139 -173 83 -83 99 -93 232
-158 170 -83 204 -108 204 -152 0 -25 -12 -43 -59 -89 -47 -45 -88 -71 -193
-122 -147 -71 -335 -137 -444 -156 -89 -16 -285 -8 -369 14 -158 42 -248 108
-641 467 -324 296 -426 385 -586 514 -277 222 -538 379 -843 507 -240 101
-363 127 -620 132 -104 2 -210 2 -235 0z m4534 -1308 c41 -17 103 -71 111 -97
17 -51 -69 -78 -138 -43 -78 40 -107 95 -70 136 19 22 52 23 97 4z"/>
</g>
</svg>
