<?xml version="1.0"?>
<svg xmlns="http://www.w3.org/2000/svg" viewBox="0 0 50 50">
    <path style="text-indent:0;text-align:start;line-height:normal;text-transform:none;block-progression:tb;-inkscape-font-specification:Bitstream Vera Sans" d="M 42.28125 2.96875 A 1.0001 1.0001 0 0 0 41.625 4.5625 C 42.253673 5.4286528 42.266843 5.8898274 42.28125 6.5625 C 42.086227 6.3050032 41.852634 6.0100915 41.625 5.59375 C 40.661648 3.8320129 38.90625 3.09375 38.90625 3.09375 A 1.0001 1.0001 0 0 0 38.40625 3 A 1.0001 1.0001 0 0 0 37.5625 3.625 C 37.5625 3.625 36.715665 5.3861521 37.0625 7.1875 C 37.268689 8.2554558 37.827084 8.8830964 38.28125 9.3125 C 38.18624 9.6572795 38.070954 10.182698 37.59375 11.03125 C 36.978906 12.124551 36.154651 13 35 13 C 34.76479 13 34.149022 12.774523 33.375 12.25 C 32.600978 11.725477 31.658963 10.953777 30.625 10.1875 C 28.557073 8.6549455 26.027787 7 23 7 C 18.620101 7 15.640089 9.1604438 13.84375 12.1875 C 12.047411 15.214556 11.267243 19.060124 10.65625 22.84375 C 10.045257 26.627376 9.6142758 30.345596 8.78125 33 C 8.3647371 34.327202 7.8549436 35.379961 7.25 36.03125 C 6.6450564 36.682539 6.00015 37 5 37 C 2.6997212 37 1.9375 34.6875 1.9375 34.6875 A 1.0001 1.0001 0 1 0 0.0625 35.3125 C 0.0625 35.3125 1.3542788 39 5 39 C 5.1915127 39 5.3774191 38.980923 5.5625 38.96875 C 5.5728197 38.967697 5.583453 38.969862 5.59375 38.96875 C 8.0271315 38.79972 9.9042101 37.610202 11.21875 35.96875 C 12.638605 34.195792 13.488506 31.930437 14.15625 29.75 C 14.823994 27.569563 15.299613 25.434753 15.8125 23.9375 C 15.94569 23.548682 16.0844 23.377928 16.21875 23.09375 C 16.460463 24.734459 16.938132 26.10827 17.46875 27.03125 C 17.846335 27.688038 18.15605 28.190514 18.3125 28.625 C 18.46895 29.059486 18.494318 29.384802 18.34375 29.90625 C 18.173191 30.496741 17.516485 31.239813 16.75 32 C 15.983515 32.760187 14.997293 33.570636 15 34.9375 C 15.01026 39.511538 14.302605 41.349041 13.6875 42.28125 C 13.379948 42.747355 13.060852 42.989363 12.71875 43.375 C 12.376648 43.760637 12 44.409362 12 45.15625 C 12 45.749407 12.324695 46.331051 12.75 46.625 C 13.175305 46.918949 13.615833 47 14 47 C 14.897172 47 15.576858 46.500828 16.1875 45.90625 C 16.798142 45.311672 17.370937 44.543501 17.875 43.6875 C 18.883127 41.975498 19.697528 39.932858 20 38.15625 C 20.193494 37.019475 20.613545 36.330786 21.28125 35.65625 C 21.948955 34.981714 22.891362 34.348445 23.90625 33.53125 C 25.755657 32.042094 27.733988 29.729603 28.6875 25.375 C 29.065533 25.562049 29.091432 25.661886 29.65625 25.8125 C 30.58509 26.060184 31.794413 26.155585 32.96875 25.71875 C 33.017111 25.921286 33.065735 26.12807 33.125 26.3125 C 33.388584 27.132762 33.68657 27.782163 33.8125 28.21875 C 33.93843 28.655337 33.92956 28.672239 33.84375 28.78125 C 33.817537 28.806905 33.80824 28.85147 33.78125 28.875 C 33.374145 29.229918 33.039623 29.319715 32.78125 29.21875 A 1.0001 1.0001 0 1 0 32.0625 31.0625 C 33.191127 31.503535 34.324855 31.04533 35.09375 30.375 C 35.178555 30.301066 35.233577 30.203952 35.3125 30.125 A 1.0004882 1.0004882 0 0 0 35.40625 30.03125 C 35.992295 29.411027 36.419675 28.667497 36.53125 27.8125 C 36.633309 27.032792 36.709745 26.037934 36.90625 25.125 C 37.102755 24.212066 37.432745 23.431097 37.875 23.0625 C 39.687075 21.552633 40.40448 19.437645 40.96875 17.96875 C 41.250885 17.234303 41.525597 16.659504 41.6875 16.46875 C 41.76845 16.37337 41.76547 16.37064 41.75 16.375 C 41.7375 16.3785 41.79684 16.3827 41.875 16.40625 C 41.89361 16.41185 41.8781 16.3957 41.90625 16.40625 C 42.785016 17.126885 43.833333 17.359693 44.65625 17.34375 C 45.424369 17.32887 45.81962 17.216374 46.03125 17.15625 L 48.4375 17.5 A 1.0001 1.0001 0 0 0 49.4375 17 C 49.4375 17 49.684277 16.605102 49.84375 16.0625 C 50.003223 15.519898 50.144725 14.686351 49.625 13.90625 C 49.280886 13.39046 48.708703 12.776715 48.15625 12.1875 C 47.603797 11.598285 47.125 11.125 47.125 11.125 C 47.017434 10.928284 46.554261 10.044347 45.5625 9.125 C 45.239992 8.8260137 44.938573 8.5834984 44.65625 8.375 A 1.0001 1.0001 0 0 0 44.625 8.34375 C 44.611458 8.3338336 44.607176 8.3222247 44.59375 8.3125 A 1.0001 1.0001 0 0 0 44.5625 8.25 C 44.237619 7.6997487 44.298343 7.3293274 44.28125 6.53125 C 44.264157 5.7331726 44.091077 4.6080972 43.21875 3.40625 A 1.0001 1.0001 0 0 0 42.375 2.96875 A 1.0001 1.0001 0 0 0 42.28125 2.96875 z M 39.1875 5.78125 C 39.44026 6.0176709 39.694956 6.2332431 39.875 6.5625 C 40.763861 8.1882234 41.78125 8.96875 41.78125 8.96875 A 1.0001 1.0001 0 0 0 42.03125 9.09375 C 42.03125 9.09375 42.98136 9.4755765 44.1875 10.59375 C 44.980771 11.329099 45.53125 12.28125 45.53125 12.28125 A 1.0001 1.0001 0 0 0 45.6875 12.5 C 45.6875 12.5 46.185453 12.993715 46.71875 13.5625 C 47.252047 14.131285 47.861864 14.87104 47.96875 15.03125 C 47.95781 15.01482 47.95023 15.185823 47.90625 15.40625 L 46.1875 15.15625 A 1.0001 1.0001 0 0 0 45.75 15.1875 C 45.75 15.1875 45.254945 15.331545 44.625 15.34375 C 43.995055 15.35595 43.387257 15.242459 43 14.8125 A 1.0001 1.0001 0 0 0 42.59375 14.53125 C 42.156051 14.367113 41.670712 14.310161 41.21875 14.4375 C 40.766788 14.564839 40.413142 14.85358 40.15625 15.15625 C 39.642465 15.76159 39.385865 16.489572 39.09375 17.25 C 38.50952 18.770855 37.869675 20.468117 36.59375 21.53125 C 35.589005 22.368653 35.177245 23.573684 34.9375 24.6875 C 34.912192 24.805078 34.896369 24.914729 34.875 25.03125 C 34.594239 23.87293 34.590215 22.598858 35.875 20.71875 A 1.0001 1.0001 0 0 0 34.96875 19.125 A 1.0001 1.0001 0 0 0 34.25 19.59375 C 33.277356 21.017082 32.901795 22.346564 32.8125 23.53125 C 31.934123 24.136549 31.007272 24.101933 30.15625 23.875 C 29.232176 23.628587 28.5625 23.1875 28.5625 23.1875 A 1.0001 1.0001 0 0 0 27 23.84375 C 26.266462 28.664623 24.483974 30.47189 22.625 31.96875 C 21.695513 32.71718 20.740764 33.375379 19.875 34.25 C 19.009236 35.124621 18.262506 36.270275 18 37.8125 C 17.756472 39.242892 17.037623 41.190752 16.15625 42.6875 C 15.715563 43.435874 15.231796 44.060484 14.8125 44.46875 C 14.453166 44.818632 14.235046 44.907134 14.125 44.9375 C 14.15279 44.88839 14.11011 44.84122 14.21875 44.71875 C 14.442429 44.466606 14.898677 44.04952 15.34375 43.375 C 16.233895 42.025959 17.010741 39.726462 17 34.9375 C 16.999707 34.789364 17.401485 34.186063 18.15625 33.4375 C 18.911015 32.688937 19.897809 31.796259 20.28125 30.46875 C 20.545182 29.554698 20.447956 28.692077 20.1875 27.96875 C 19.927044 27.245423 19.54104 26.646212 19.1875 26.03125 C 18.48042 24.801325 17.823987 23.514312 18 21.0625 A 1.0001 1.0001 0 0 0 17.03125 20 C 16.181712 19.98138 15.424646 20.483753 14.96875 21.09375 C 14.512854 21.703747 14.22565 22.440064 13.9375 23.28125 C 13.3612 24.963622 12.887006 27.107437 12.25 29.1875 C 11.897572 30.338311 11.486419 31.443886 11 32.46875 C 11.710284 29.704017 12.099884 26.408077 12.625 23.15625 C 13.225132 19.439876 14.020808 15.785444 15.5625 13.1875 C 17.104192 10.589556 19.233899 9 23 9 C 25.273213 9 27.457427 10.345055 29.4375 11.8125 C 30.427537 12.546223 31.363897 13.274523 32.25 13.875 C 33.136103 14.475477 33.97271 15 35 15 C 37.154349 15 38.563344 13.387699 39.34375 12 C 40.124156 10.612301 40.40625 9.25 40.40625 9.25 A 1.0001 1.0001 0 0 0 40.03125 8.21875 C 40.03125 8.21875 39.16519 7.50624 39.03125 6.8125 C 38.96393 6.4628851 39.09843 6.2275439 39.1875 5.78125 z" overflow="visible" font-family="Bitstream Vera Sans"/>
</svg>
